<?xml version="1.0" encoding="UTF-8" standalone="no"?><svg xmlns="http://www.w3.org/2000/svg" xmlns:xlink="http://www.w3.org/1999/xlink" contentScriptType="application/ecmascript" contentStyleType="text/css" height="244px" preserveAspectRatio="none" style="width:114px;height:244px;" version="1.1" viewBox="0 0 114 244" width="114px" zoomAndPan="magnify"><defs><filter height="300%" id="flhitidjf8ced" width="300%" x="-1" y="-1"><feGaussianBlur result="blurOut" stdDeviation="2.0"/><feColorMatrix in="blurOut" result="blurOut2" type="matrix" values="0 0 0 0 0 0 0 0 0 0 0 0 0 0 0 0 0 0 .4 0"/><feOffset dx="4.0" dy="4.0" in="blurOut2" result="blurOut3"/><feBlend in="SourceGraphic" in2="blurOut3" mode="normal"/></filter></defs><g><!--class Employee--><rect fill="#FEFECE" filter="url(#flhitidjf8ced)" height="89.5078" id="Employee" style="stroke: #A80036; stroke-width: 1.5;" width="87" x="11" y="8"/><ellipse cx="26" cy="24" fill="#ADD1B2" rx="11" ry="11" style="stroke: #A80036; stroke-width: 1.0;"/><path d="M28.7656,19.875 Q28.9219,19.6563 29.1094,19.5469 Q29.2969,19.4375 29.5156,19.4375 Q29.8906,19.4375 30.125,19.6953 Q30.3594,19.9531 30.3594,20.5625 L30.3594,22.0156 Q30.3594,22.625 30.125,22.8906 Q29.8906,23.1563 29.5156,23.1563 Q29.1719,23.1563 28.9688,22.9531 Q28.7656,22.7656 28.6563,22.25 Q28.6094,21.8906 28.4219,21.7031 Q28.0938,21.3281 27.4844,21.1094 Q26.875,20.8906 26.25,20.8906 Q25.4844,20.8906 24.8516,21.2188 Q24.2188,21.5469 23.7266,22.2969 Q23.2344,23.0469 23.2344,24.0781 L23.2344,25.1719 Q23.2344,26.4063 24.125,27.2266 Q25.0156,28.0469 26.6094,28.0469 Q27.5469,28.0469 28.2031,27.7969 Q28.5938,27.6406 29.0156,27.2031 Q29.2813,26.9375 29.4297,26.8594 Q29.5781,26.7813 29.7813,26.7813 Q30.1094,26.7813 30.3672,27.0391 Q30.625,27.2969 30.625,27.6406 Q30.625,27.9844 30.2813,28.3906 Q29.7813,28.9688 28.9844,29.2969 Q27.9063,29.75 26.6094,29.75 Q25.0938,29.75 23.8906,29.125 Q22.9063,28.625 22.2188,27.5547 Q21.5313,26.4844 21.5313,25.2031 L21.5313,24.0469 Q21.5313,22.7188 22.1484,21.5703 Q22.7656,20.4219 23.8594,19.8047 Q24.9531,19.1875 26.1875,19.1875 Q26.9219,19.1875 27.5703,19.3516 Q28.2188,19.5156 28.7656,19.875 Z "/><text fill="#000000" font-family="sans-serif" font-size="12" lengthAdjust="spacingAndGlyphs" textLength="55" x="40" y="28.9102">Employee</text><line style="stroke: #A80036; stroke-width: 1.5;" x1="12" x2="97" y1="40" y2="40"/><text fill="#000000" font-family="sans-serif" font-size="11" lengthAdjust="spacingAndGlyphs" textLength="31" x="17" y="55.4189">long id</text><text fill="#000000" font-family="sans-serif" font-size="11" lengthAdjust="spacingAndGlyphs" textLength="57" x="17" y="69.2549">String name</text><text fill="#000000" font-family="sans-serif" font-size="11" lengthAdjust="spacingAndGlyphs" textLength="53" x="17" y="83.0908">long salary</text><line style="stroke: #A80036; stroke-width: 1.5;" x1="12" x2="97" y1="89.5078" y2="89.5078"/><!--class Department--><rect fill="#FEFECE" filter="url(#flhitidjf8ced)" height="75.6719" id="Department" style="stroke: #A80036; stroke-width: 1.5;" width="97" x="6" y="158"/><ellipse cx="21" cy="174" fill="#ADD1B2" rx="11" ry="11" style="stroke: #A80036; stroke-width: 1.0;"/><path d="M23.7656,169.875 Q23.9219,169.6563 24.1094,169.5469 Q24.2969,169.4375 24.5156,169.4375 Q24.8906,169.4375 25.125,169.6953 Q25.3594,169.9531 25.3594,170.5625 L25.3594,172.0156 Q25.3594,172.625 25.125,172.8906 Q24.8906,173.1563 24.5156,173.1563 Q24.1719,173.1563 23.9688,172.9531 Q23.7656,172.7656 23.6563,172.25 Q23.6094,171.8906 23.4219,171.7031 Q23.0938,171.3281 22.4844,171.1094 Q21.875,170.8906 21.25,170.8906 Q20.4844,170.8906 19.8516,171.2188 Q19.2188,171.5469 18.7266,172.2969 Q18.2344,173.0469 18.2344,174.0781 L18.2344,175.1719 Q18.2344,176.4063 19.125,177.2266 Q20.0156,178.0469 21.6094,178.0469 Q22.5469,178.0469 23.2031,177.7969 Q23.5938,177.6406 24.0156,177.2031 Q24.2813,176.9375 24.4297,176.8594 Q24.5781,176.7813 24.7813,176.7813 Q25.1094,176.7813 25.3672,177.0391 Q25.625,177.2969 25.625,177.6406 Q25.625,177.9844 25.2813,178.3906 Q24.7813,178.9688 23.9844,179.2969 Q22.9063,179.75 21.6094,179.75 Q20.0938,179.75 18.8906,179.125 Q17.9063,178.625 17.2188,177.5547 Q16.5313,176.4844 16.5313,175.2031 L16.5313,174.0469 Q16.5313,172.7188 17.1484,171.5703 Q17.7656,170.4219 18.8594,169.8047 Q19.9531,169.1875 21.1875,169.1875 Q21.9219,169.1875 22.5703,169.3516 Q23.2188,169.5156 23.7656,169.875 Z "/><text fill="#000000" font-family="sans-serif" font-size="12" lengthAdjust="spacingAndGlyphs" textLength="65" x="35" y="178.9102">Department</text><line style="stroke: #A80036; stroke-width: 1.5;" x1="7" x2="102" y1="190" y2="190"/><text fill="#000000" font-family="sans-serif" font-size="11" lengthAdjust="spacingAndGlyphs" textLength="22" x="12" y="205.4189">int id</text><text fill="#000000" font-family="sans-serif" font-size="11" lengthAdjust="spacingAndGlyphs" textLength="57" x="12" y="219.2549">String name</text><line style="stroke: #A80036; stroke-width: 1.5;" x1="7" x2="102" y1="225.6719" y2="225.6719"/><!--link Employee to Department--><path d="M54.5,98.226 C54.5,115.5 54.5,135.2283 54.5,152.347 " fill="none" id="Employee-Department" style="stroke: #A80036; stroke-width: 1.0;"/><polygon fill="#A80036" points="54.5,157.5703,58.5,148.5703,54.5,152.5703,50.5,148.5703,54.5,157.5703" style="stroke: #A80036; stroke-width: 1.0;"/><text fill="#000000" font-family="sans-serif" font-size="13" lengthAdjust="spacingAndGlyphs" textLength="5" x="49.1641" y="118.9301">*</text><text fill="#000000" font-family="sans-serif" font-size="13" lengthAdjust="spacingAndGlyphs" textLength="22" x="30.6094" y="147.1437">0..1</text><!--
@startuml

class Employee {
	long id
	String name
	long salary
}

class Department {
	int id
	String name
}

Employee "*" - -> "0..1" Department

@enduml

PlantUML version 1.2018.03(Fri Apr 06 00:59:15 CST 2018)
(GPL source distribution)
Java Runtime: Java(TM) SE Runtime Environment
JVM: Java HotSpot(TM) 64-Bit Server VM
Java Version: 1.8.0_45-b15
Operating System: Windows 7
OS Version: 6.1
Default Encoding: Cp1252
Language: en
Country: GB
--></g></svg>